<svg id="visual" viewBox="0 0 900 600" width="900" height="900" xmlns="http://www.w3.org/2000/svg" xmlns:xlink="http://www.w3.org/1999/xlink" version="1.1"><rect x="0" y="0" width="900" height="600" fill="#FDF5E6"></rect><g transform="translate(453.16707165508467 336.55750939083015)"><path d="M196.8 -274.5C264.6 -221.5 335.8 -176.9 353.1 -116.5C370.3 -56 333.5 20.2 287.7 72.6C241.9 125 187.1 153.5 137.6 198.4C88.2 243.4 44.1 304.7 -15.4 325.8C-74.8 347 -149.7 328 -204.5 284.8C-259.4 241.7 -294.2 174.3 -322.4 101.5C-350.6 28.6 -372.2 -49.6 -360.5 -126.9C-348.9 -204.2 -304.1 -280.5 -238.4 -334.2C-172.8 -387.9 -86.4 -418.9 -11 -403.8C64.5 -388.7 128.9 -327.4 196.8 -274.5" fill="#F5FFFA"></path></g></svg>